<svg width="14" height="14" viewBox="0 0 14 14" fill="none" xmlns="http://www.w3.org/2000/svg">
<path d="M2.33333 7.00002V3.80002C2.33333 3.05328 2.33333 2.67992 2.47866 2.3947C2.60649 2.14382 2.81046 1.93984 3.06135 1.81201C3.34656 1.66669 3.71993 1.66669 4.46667 1.66669H9.53333C10.2801 1.66669 10.6534 1.66669 10.9387 1.81201C11.1895 1.93984 11.3935 2.14382 11.5213 2.3947C11.6667 2.67992 11.6667 3.05328 11.6667 3.80002V7.00002M1 7.00002V10.2C1 10.9468 1 11.3201 1.14532 11.6053C1.27316 11.8562 1.47713 12.0602 1.72801 12.188C2.01323 12.3334 2.3866 12.3334 3.13333 12.3334H10.8667C11.6134 12.3334 11.9868 12.3334 12.272 12.188C12.5229 12.0602 12.7268 11.8562 12.8547 11.6053C13 11.3201 13 10.9468 13 10.2V7.00002H10.5503C10.2242 7.00002 10.0611 7.00002 9.90769 7.03686C9.77164 7.06952 9.64158 7.1234 9.52229 7.1965C9.38773 7.27896 9.27243 7.39426 9.04183 7.62486L8.95817 7.70852C8.72757 7.93911 8.61227 8.05442 8.47771 8.13687C8.35842 8.20998 8.22836 8.26385 8.09231 8.29651C7.93886 8.33335 7.7758 8.33335 7.44968 8.33335H6.55032C6.2242 8.33335 6.06114 8.33335 5.90769 8.29651C5.77164 8.26385 5.64158 8.20998 5.52229 8.13687C5.38773 8.05442 5.27243 7.93912 5.04183 7.70851L4.95817 7.62486C4.72757 7.39426 4.61227 7.27896 4.47771 7.1965C4.35842 7.1234 4.22836 7.06952 4.09231 7.03686C3.93886 7.00002 3.7758 7.00002 3.44968 7.00002H1Z" stroke="#6C6F85" stroke-width="1.5" stroke-linecap="round" stroke-linejoin="round"/>
</svg>
