<svg width="14" height="12" viewBox="0 0 14 12" fill="none" xmlns="http://www.w3.org/2000/svg">
<path d="M1.01919 3.33331L4.65571 5.76331C5.50948 6.33083 5.93636 6.61458 6.39759 6.72485C6.8052 6.82229 7.23004 6.82229 7.63766 6.72485C8.09889 6.61458 8.52577 6.33083 9.37954 5.76331L12.9824 3.36001M4.2 10.6666H9.8C10.9201 10.6666 11.4802 10.6666 11.908 10.4487C12.2843 10.2569 12.5903 9.95095 12.782 9.57463C13 9.1468 13 8.58675 13 7.46665V4.53331C13 3.41321 13 2.85316 12.782 2.42533C12.5903 2.04901 12.2843 1.74305 11.908 1.5513C11.4802 1.33331 10.9201 1.33331 9.8 1.33331H4.2C3.0799 1.33331 2.51984 1.33331 2.09202 1.5513C1.71569 1.74305 1.40973 2.04901 1.21799 2.42533C1 2.85316 1 3.41321 1 4.53331V7.46665C1 8.58675 1 9.1468 1.21799 9.57463C1.40973 9.95095 1.71569 10.2569 2.09202 10.4487C2.51984 10.6666 3.0799 10.6666 4.2 10.6666Z" stroke="#EFA535" stroke-width="1.5" stroke-linecap="round" stroke-linejoin="round"/>
</svg>
