<svg width="14" height="14" viewBox="0 0 14 14" fill="none" xmlns="http://www.w3.org/2000/svg">
<path d="M9.00002 11L10.3334 12.3334L13 9.66669M6.33335 12.3334H3.80002C3.05328 12.3334 2.67992 12.3334 2.3947 12.188C2.14382 12.0602 1.93984 11.8562 1.81201 11.6053C1.66669 11.3201 1.66669 10.9468 1.66669 10.2V3.80002C1.66669 3.05328 1.66669 2.67992 1.81201 2.3947C1.93984 2.14382 2.14382 1.93984 2.3947 1.81201C2.67992 1.66669 3.05328 1.66669 3.80002 1.66669H10.2C10.9468 1.66669 11.3201 1.66669 11.6053 1.81201C11.8562 1.93984 12.0602 2.14382 12.188 2.3947C12.3334 2.67992 12.3334 3.05328 12.3334 3.80002V7.00002M3.66669 12.3334C3.66669 12.105 3.68964 11.8821 3.73337 11.6667C4.04221 10.1452 5.38738 9.00002 7.00002 9.00002M8.33335 5.66669C8.33335 6.40307 7.7364 7.00002 7.00002 7.00002C6.26364 7.00002 5.66669 6.40307 5.66669 5.66669C5.66669 4.93031 6.26364 4.33335 7.00002 4.33335C7.7364 4.33335 8.33335 4.93031 8.33335 5.66669Z" stroke="#6C6F85" stroke-width="1.5" stroke-linecap="round" stroke-linejoin="round"/>
</svg>
