<svg width="20" height="18" viewBox="0 0 20 18" fill="none" xmlns="http://www.w3.org/2000/svg">
<path fill-rule="evenodd" clip-rule="evenodd" d="M2.40002 2.09998H17.6C17.8762 2.09998 18.1 2.32383 18.1 2.59998V15.4C18.1 15.6761 17.8762 15.9 17.6 15.9H2.40002C2.12388 15.9 1.90002 15.6761 1.90002 15.4V2.59998C1.90002 2.32383 2.12388 2.09998 2.40002 2.09998ZM0.400024 2.59998C0.400024 1.49541 1.29545 0.599976 2.40002 0.599976H17.6C18.7046 0.599976 19.6 1.49541 19.6 2.59998V15.4C19.6 16.5045 18.7046 17.4 17.6 17.4H2.40002C1.29545 17.4 0.400024 16.5045 0.400024 15.4V2.59998ZM10.75 5.39998C10.75 4.98576 10.4142 4.64998 10 4.64998C9.58581 4.64998 9.25002 4.98576 9.25002 5.39998V8.24998H6.40002C5.98581 8.24998 5.65002 8.58576 5.65002 8.99998C5.65002 9.41419 5.98581 9.74998 6.40002 9.74998H9.25002V12.6C9.25002 13.0142 9.58581 13.35 10 13.35C10.4142 13.35 10.75 13.0142 10.75 12.6V9.74998H13.6C14.0142 9.74998 14.35 9.41419 14.35 8.99998C14.35 8.58576 14.0142 8.24998 13.6 8.24998H10.75V5.39998Z" fill="#6C6F85"/>
</svg>
